<mxfile host="app.diagrams.net" agent="Mozilla/5.0 (Windows NT 10.0; Win64; x64) AppleWebKit/537.36 (KHTML, like Gecko) Chrome/112.0.0.0 Safari/537.36" version="24.8.3">
  <diagram name="第 1 页" id="Ebx9guoyo3nPPWfQVa6c">
    <mxGraphModel dx="2234" dy="756" grid="0" gridSize="10" guides="1" tooltips="1" connect="1" arrows="1" fold="1" page="0" pageScale="1" pageWidth="826" pageHeight="1169" math="0" shadow="0">
      <root>
        <mxCell id="0" />
        <mxCell id="1" parent="0" />
        <mxCell id="aeNuIDue8vJ75vZVXS_7-7" style="edgeStyle=orthogonalEdgeStyle;rounded=0;orthogonalLoop=1;jettySize=auto;html=1;exitX=1;exitY=0.5;exitDx=0;exitDy=0;entryX=0;entryY=0.5;entryDx=0;entryDy=0;" parent="1" source="aeNuIDue8vJ75vZVXS_7-1" target="aeNuIDue8vJ75vZVXS_7-6" edge="1">
          <mxGeometry relative="1" as="geometry" />
        </mxCell>
        <mxCell id="aeNuIDue8vJ75vZVXS_7-1" value="&lt;font style=&quot;font-size: 14px;&quot;&gt;md5+sha256&lt;/font&gt;" style="rounded=1;whiteSpace=wrap;html=1;fillColor=#dae8fc;strokeColor=#6c8ebf;" parent="1" vertex="1">
          <mxGeometry x="126" y="355" width="99" height="49" as="geometry" />
        </mxCell>
        <mxCell id="aeNuIDue8vJ75vZVXS_7-10" style="edgeStyle=orthogonalEdgeStyle;rounded=0;orthogonalLoop=1;jettySize=auto;html=1;exitX=1;exitY=0.5;exitDx=0;exitDy=0;entryX=0;entryY=0.5;entryDx=0;entryDy=0;" parent="1" source="aeNuIDue8vJ75vZVXS_7-6" target="aeNuIDue8vJ75vZVXS_7-9" edge="1">
          <mxGeometry relative="1" as="geometry" />
        </mxCell>
        <mxCell id="aeNuIDue8vJ75vZVXS_7-6" value="&lt;font style=&quot;font-size: 14px;&quot;&gt;sha256&lt;/font&gt;" style="rounded=1;whiteSpace=wrap;html=1;fillColor=#dae8fc;strokeColor=#6c8ebf;" parent="1" vertex="1">
          <mxGeometry x="270" y="355" width="99" height="49" as="geometry" />
        </mxCell>
        <mxCell id="aeNuIDue8vJ75vZVXS_7-9" value="&lt;font style=&quot;font-size: 14px;&quot;&gt;value&lt;/font&gt;" style="ellipse;whiteSpace=wrap;html=1;fillColor=#f8cecc;strokeColor=#b85450;" parent="1" vertex="1">
          <mxGeometry x="414" y="350.5" width="83" height="58" as="geometry" />
        </mxCell>
        <mxCell id="aeNuIDue8vJ75vZVXS_7-26" style="edgeStyle=orthogonalEdgeStyle;rounded=0;orthogonalLoop=1;jettySize=auto;html=1;exitX=1;exitY=0.5;exitDx=0;exitDy=0;entryX=0;entryY=0.5;entryDx=0;entryDy=0;" parent="1" source="aeNuIDue8vJ75vZVXS_7-12" target="aeNuIDue8vJ75vZVXS_7-23" edge="1">
          <mxGeometry relative="1" as="geometry" />
        </mxCell>
        <mxCell id="aeNuIDue8vJ75vZVXS_7-12" value="&lt;font style=&quot;font-size: 14px;&quot;&gt;sha1&lt;/font&gt;" style="ellipse;whiteSpace=wrap;html=1;fillColor=#d5e8d4;strokeColor=#82b366;" parent="1" vertex="1">
          <mxGeometry x="-14" y="432.5" width="83" height="62" as="geometry" />
        </mxCell>
        <mxCell id="aeNuIDue8vJ75vZVXS_7-49" style="edgeStyle=orthogonalEdgeStyle;rounded=0;orthogonalLoop=1;jettySize=auto;html=1;exitX=1;exitY=0.5;exitDx=0;exitDy=0;entryX=0;entryY=0.5;entryDx=0;entryDy=0;" parent="1" source="aeNuIDue8vJ75vZVXS_7-13" target="aeNuIDue8vJ75vZVXS_7-6" edge="1">
          <mxGeometry relative="1" as="geometry">
            <Array as="points">
              <mxPoint x="248" y="44" />
              <mxPoint x="248" y="380" />
            </Array>
          </mxGeometry>
        </mxCell>
        <mxCell id="aeNuIDue8vJ75vZVXS_7-13" value="&lt;font style=&quot;font-size: 14px;&quot;&gt;md5+sha1+sha256&lt;/font&gt;" style="ellipse;whiteSpace=wrap;html=1;fillColor=#d5e8d4;strokeColor=#82b366;" parent="1" vertex="1">
          <mxGeometry x="-16" y="7" width="83" height="62" as="geometry" />
        </mxCell>
        <mxCell id="aeNuIDue8vJ75vZVXS_7-25" style="edgeStyle=orthogonalEdgeStyle;rounded=0;orthogonalLoop=1;jettySize=auto;html=1;exitX=1;exitY=0.5;exitDx=0;exitDy=0;entryX=0;entryY=0.5;entryDx=0;entryDy=0;" parent="1" source="aeNuIDue8vJ75vZVXS_7-15" target="aeNuIDue8vJ75vZVXS_7-1" edge="1">
          <mxGeometry relative="1" as="geometry" />
        </mxCell>
        <mxCell id="aeNuIDue8vJ75vZVXS_7-15" value="&lt;font style=&quot;font-size: 14px;&quot;&gt;md5+sha1&lt;/font&gt;" style="ellipse;whiteSpace=wrap;html=1;fillColor=#d5e8d4;strokeColor=#82b366;" parent="1" vertex="1">
          <mxGeometry x="-14" y="348.5" width="83" height="62" as="geometry" />
        </mxCell>
        <mxCell id="aeNuIDue8vJ75vZVXS_7-17" style="edgeStyle=orthogonalEdgeStyle;rounded=0;orthogonalLoop=1;jettySize=auto;html=1;exitX=1;exitY=0.5;exitDx=0;exitDy=0;entryX=0;entryY=0.5;entryDx=0;entryDy=0;" parent="1" source="aeNuIDue8vJ75vZVXS_7-16" target="aeNuIDue8vJ75vZVXS_7-1" edge="1">
          <mxGeometry relative="1" as="geometry" />
        </mxCell>
        <mxCell id="aeNuIDue8vJ75vZVXS_7-16" value="&lt;font style=&quot;font-size: 14px;&quot;&gt;md5&lt;/font&gt;" style="ellipse;whiteSpace=wrap;html=1;fillColor=#d5e8d4;strokeColor=#82b366;" parent="1" vertex="1">
          <mxGeometry x="-14" y="275" width="83" height="62" as="geometry" />
        </mxCell>
        <mxCell id="aeNuIDue8vJ75vZVXS_7-48" style="edgeStyle=orthogonalEdgeStyle;rounded=0;orthogonalLoop=1;jettySize=auto;html=1;exitX=1;exitY=0.5;exitDx=0;exitDy=0;entryX=0;entryY=0.5;entryDx=0;entryDy=0;" parent="1" source="aeNuIDue8vJ75vZVXS_7-18" target="aeNuIDue8vJ75vZVXS_7-6" edge="1">
          <mxGeometry relative="1" as="geometry">
            <mxPoint x="196" y="327" as="targetPoint" />
            <Array as="points">
              <mxPoint x="247" y="134" />
              <mxPoint x="247" y="380" />
            </Array>
          </mxGeometry>
        </mxCell>
        <mxCell id="aeNuIDue8vJ75vZVXS_7-18" value="&lt;font style=&quot;font-size: 14px;&quot;&gt;sha256&lt;/font&gt;" style="ellipse;whiteSpace=wrap;html=1;fillColor=#d5e8d4;strokeColor=#82b366;" parent="1" vertex="1">
          <mxGeometry x="-14" y="103" width="83" height="62" as="geometry" />
        </mxCell>
        <mxCell id="aeNuIDue8vJ75vZVXS_7-47" style="edgeStyle=orthogonalEdgeStyle;rounded=0;orthogonalLoop=1;jettySize=auto;html=1;exitX=1;exitY=0.5;exitDx=0;exitDy=0;entryX=0;entryY=0.5;entryDx=0;entryDy=0;" parent="1" source="aeNuIDue8vJ75vZVXS_7-19" target="aeNuIDue8vJ75vZVXS_7-6" edge="1">
          <mxGeometry relative="1" as="geometry">
            <Array as="points">
              <mxPoint x="247" y="212" />
              <mxPoint x="247" y="380" />
            </Array>
          </mxGeometry>
        </mxCell>
        <mxCell id="aeNuIDue8vJ75vZVXS_7-19" value="&lt;font style=&quot;font-size: 14px;&quot;&gt;sha1+sha256&lt;/font&gt;" style="ellipse;whiteSpace=wrap;html=1;fillColor=#d5e8d4;strokeColor=#82b366;" parent="1" vertex="1">
          <mxGeometry x="-16" y="181" width="83" height="62" as="geometry" />
        </mxCell>
        <mxCell id="aeNuIDue8vJ75vZVXS_7-24" style="edgeStyle=orthogonalEdgeStyle;rounded=0;orthogonalLoop=1;jettySize=auto;html=1;exitX=0.5;exitY=0;exitDx=0;exitDy=0;entryX=0.5;entryY=1;entryDx=0;entryDy=0;" parent="1" source="aeNuIDue8vJ75vZVXS_7-23" target="aeNuIDue8vJ75vZVXS_7-1" edge="1">
          <mxGeometry relative="1" as="geometry" />
        </mxCell>
        <mxCell id="aeNuIDue8vJ75vZVXS_7-23" value="&lt;font style=&quot;font-size: 14px;&quot;&gt;sha1+md5&lt;/font&gt;" style="rounded=1;whiteSpace=wrap;html=1;fillColor=#dae8fc;strokeColor=#6c8ebf;" parent="1" vertex="1">
          <mxGeometry x="126" y="439" width="99" height="49" as="geometry" />
        </mxCell>
        <mxCell id="aeNuIDue8vJ75vZVXS_7-27" style="edgeStyle=orthogonalEdgeStyle;rounded=0;orthogonalLoop=1;jettySize=auto;html=1;exitX=1;exitY=0.5;exitDx=0;exitDy=0;entryX=0;entryY=0.5;entryDx=0;entryDy=0;" parent="1" source="aeNuIDue8vJ75vZVXS_7-28" target="aeNuIDue8vJ75vZVXS_7-30" edge="1">
          <mxGeometry relative="1" as="geometry" />
        </mxCell>
        <mxCell id="aeNuIDue8vJ75vZVXS_7-28" value="&lt;font style=&quot;font-size: 14px;&quot;&gt;md5+sha256&lt;/font&gt;" style="rounded=1;whiteSpace=wrap;html=1;fillColor=#dae8fc;strokeColor=#6c8ebf;" parent="1" vertex="1">
          <mxGeometry x="84" y="1358" width="99" height="49" as="geometry" />
        </mxCell>
        <mxCell id="aeNuIDue8vJ75vZVXS_7-29" style="edgeStyle=orthogonalEdgeStyle;rounded=0;orthogonalLoop=1;jettySize=auto;html=1;exitX=1;exitY=0.5;exitDx=0;exitDy=0;entryX=0;entryY=0.5;entryDx=0;entryDy=0;" parent="1" source="aeNuIDue8vJ75vZVXS_7-30" target="aeNuIDue8vJ75vZVXS_7-31" edge="1">
          <mxGeometry relative="1" as="geometry" />
        </mxCell>
        <mxCell id="aeNuIDue8vJ75vZVXS_7-30" value="&lt;font style=&quot;font-size: 14px;&quot;&gt;sha256&lt;/font&gt;" style="rounded=1;whiteSpace=wrap;html=1;fillColor=#dae8fc;strokeColor=#6c8ebf;" parent="1" vertex="1">
          <mxGeometry x="228" y="1358" width="99" height="49" as="geometry" />
        </mxCell>
        <mxCell id="aeNuIDue8vJ75vZVXS_7-31" value="&lt;font style=&quot;font-size: 14px;&quot;&gt;value&lt;/font&gt;" style="ellipse;whiteSpace=wrap;html=1;fillColor=#f8cecc;strokeColor=#b85450;" parent="1" vertex="1">
          <mxGeometry x="372" y="1353.5" width="83" height="58" as="geometry" />
        </mxCell>
        <mxCell id="aeNuIDue8vJ75vZVXS_7-32" style="edgeStyle=orthogonalEdgeStyle;rounded=0;orthogonalLoop=1;jettySize=auto;html=1;exitX=1;exitY=0.5;exitDx=0;exitDy=0;entryX=0;entryY=0.5;entryDx=0;entryDy=0;" parent="1" source="aeNuIDue8vJ75vZVXS_7-33" target="aeNuIDue8vJ75vZVXS_7-45" edge="1">
          <mxGeometry relative="1" as="geometry" />
        </mxCell>
        <mxCell id="aeNuIDue8vJ75vZVXS_7-33" value="&lt;font style=&quot;font-size: 14px;&quot;&gt;sha1&lt;/font&gt;" style="ellipse;whiteSpace=wrap;html=1;fillColor=#d5e8d4;strokeColor=#82b366;" parent="1" vertex="1">
          <mxGeometry x="-54" y="1460" width="83" height="62" as="geometry" />
        </mxCell>
        <mxCell id="aeNuIDue8vJ75vZVXS_7-34" style="edgeStyle=orthogonalEdgeStyle;rounded=0;orthogonalLoop=1;jettySize=auto;html=1;exitX=0.5;exitY=1;exitDx=0;exitDy=0;entryX=0.5;entryY=0;entryDx=0;entryDy=0;" parent="1" source="aeNuIDue8vJ75vZVXS_7-35" target="aeNuIDue8vJ75vZVXS_7-30" edge="1">
          <mxGeometry relative="1" as="geometry" />
        </mxCell>
        <mxCell id="aeNuIDue8vJ75vZVXS_7-35" value="&lt;font style=&quot;font-size: 14px;&quot;&gt;md5+sha1+sha256&lt;/font&gt;" style="ellipse;whiteSpace=wrap;html=1;fillColor=#d5e8d4;strokeColor=#82b366;" parent="1" vertex="1">
          <mxGeometry x="342" y="1212" width="83" height="62" as="geometry" />
        </mxCell>
        <mxCell id="aeNuIDue8vJ75vZVXS_7-36" style="edgeStyle=orthogonalEdgeStyle;rounded=0;orthogonalLoop=1;jettySize=auto;html=1;exitX=1;exitY=0.5;exitDx=0;exitDy=0;entryX=0;entryY=0.5;entryDx=0;entryDy=0;" parent="1" source="aeNuIDue8vJ75vZVXS_7-37" target="aeNuIDue8vJ75vZVXS_7-28" edge="1">
          <mxGeometry relative="1" as="geometry" />
        </mxCell>
        <mxCell id="aeNuIDue8vJ75vZVXS_7-37" value="&lt;font style=&quot;font-size: 14px;&quot;&gt;md5+sha1&lt;/font&gt;" style="ellipse;whiteSpace=wrap;html=1;fillColor=#d5e8d4;strokeColor=#82b366;" parent="1" vertex="1">
          <mxGeometry x="-54" y="1388.25" width="83" height="62" as="geometry" />
        </mxCell>
        <mxCell id="aeNuIDue8vJ75vZVXS_7-38" style="edgeStyle=orthogonalEdgeStyle;rounded=0;orthogonalLoop=1;jettySize=auto;html=1;exitX=1;exitY=0.5;exitDx=0;exitDy=0;entryX=0;entryY=0.5;entryDx=0;entryDy=0;" parent="1" source="aeNuIDue8vJ75vZVXS_7-39" target="aeNuIDue8vJ75vZVXS_7-28" edge="1">
          <mxGeometry relative="1" as="geometry" />
        </mxCell>
        <mxCell id="aeNuIDue8vJ75vZVXS_7-39" value="&lt;font style=&quot;font-size: 14px;&quot;&gt;md5&lt;/font&gt;" style="ellipse;whiteSpace=wrap;html=1;fillColor=#d5e8d4;strokeColor=#82b366;" parent="1" vertex="1">
          <mxGeometry x="-54" y="1314.75" width="83" height="62" as="geometry" />
        </mxCell>
        <mxCell id="aeNuIDue8vJ75vZVXS_7-40" style="edgeStyle=orthogonalEdgeStyle;rounded=0;orthogonalLoop=1;jettySize=auto;html=1;exitX=0.5;exitY=1;exitDx=0;exitDy=0;entryX=0.5;entryY=0;entryDx=0;entryDy=0;" parent="1" source="aeNuIDue8vJ75vZVXS_7-41" target="aeNuIDue8vJ75vZVXS_7-30" edge="1">
          <mxGeometry relative="1" as="geometry" />
        </mxCell>
        <mxCell id="aeNuIDue8vJ75vZVXS_7-41" value="&lt;font style=&quot;font-size: 14px;&quot;&gt;sha256&lt;/font&gt;" style="ellipse;whiteSpace=wrap;html=1;fillColor=#d5e8d4;strokeColor=#82b366;" parent="1" vertex="1">
          <mxGeometry x="236" y="1212" width="83" height="62" as="geometry" />
        </mxCell>
        <mxCell id="aeNuIDue8vJ75vZVXS_7-42" style="edgeStyle=orthogonalEdgeStyle;rounded=0;orthogonalLoop=1;jettySize=auto;html=1;exitX=0.5;exitY=1;exitDx=0;exitDy=0;" parent="1" source="aeNuIDue8vJ75vZVXS_7-43" edge="1">
          <mxGeometry relative="1" as="geometry">
            <mxPoint x="278" y="1358" as="targetPoint" />
          </mxGeometry>
        </mxCell>
        <mxCell id="aeNuIDue8vJ75vZVXS_7-43" value="&lt;font style=&quot;font-size: 14px;&quot;&gt;sha1+sha256&lt;/font&gt;" style="ellipse;whiteSpace=wrap;html=1;fillColor=#d5e8d4;strokeColor=#82b366;" parent="1" vertex="1">
          <mxGeometry x="139" y="1212" width="83" height="62" as="geometry" />
        </mxCell>
        <mxCell id="aeNuIDue8vJ75vZVXS_7-44" style="edgeStyle=orthogonalEdgeStyle;rounded=0;orthogonalLoop=1;jettySize=auto;html=1;exitX=0.5;exitY=0;exitDx=0;exitDy=0;entryX=0.5;entryY=1;entryDx=0;entryDy=0;" parent="1" source="aeNuIDue8vJ75vZVXS_7-45" target="aeNuIDue8vJ75vZVXS_7-28" edge="1">
          <mxGeometry relative="1" as="geometry" />
        </mxCell>
        <mxCell id="aeNuIDue8vJ75vZVXS_7-45" value="&lt;font style=&quot;font-size: 14px;&quot;&gt;sha1+md5&lt;/font&gt;" style="rounded=1;whiteSpace=wrap;html=1;fillColor=#dae8fc;strokeColor=#6c8ebf;" parent="1" vertex="1">
          <mxGeometry x="84" y="1466.5" width="99" height="49" as="geometry" />
        </mxCell>
        <mxCell id="aeNuIDue8vJ75vZVXS_7-50" value="" style="ellipse;whiteSpace=wrap;html=1;fillColor=#d5e8d4;strokeColor=#82b366;" parent="1" vertex="1">
          <mxGeometry x="357" y="1499.5" width="25" height="19" as="geometry" />
        </mxCell>
        <mxCell id="aeNuIDue8vJ75vZVXS_7-51" value="用户请求" style="text;html=1;align=center;verticalAlign=middle;resizable=0;points=[];autosize=1;strokeColor=none;fillColor=none;" parent="1" vertex="1">
          <mxGeometry x="382" y="1496" width="66" height="26" as="geometry" />
        </mxCell>
        <mxCell id="aeNuIDue8vJ75vZVXS_7-52" value="" style="rounded=1;whiteSpace=wrap;html=1;fillColor=#dae8fc;strokeColor=#6c8ebf;" parent="1" vertex="1">
          <mxGeometry x="357" y="1527.5" width="28" height="15" as="geometry" />
        </mxCell>
        <mxCell id="aeNuIDue8vJ75vZVXS_7-54" value="关联key查询" style="text;html=1;align=center;verticalAlign=middle;resizable=0;points=[];autosize=1;strokeColor=none;fillColor=none;" parent="1" vertex="1">
          <mxGeometry x="380" y="1522" width="85" height="26" as="geometry" />
        </mxCell>
        <mxCell id="aeNuIDue8vJ75vZVXS_7-55" value="" style="ellipse;whiteSpace=wrap;html=1;fillColor=#f8cecc;strokeColor=#b85450;" parent="1" vertex="1">
          <mxGeometry x="359" y="1552.5" width="24" height="18" as="geometry" />
        </mxCell>
        <mxCell id="aeNuIDue8vJ75vZVXS_7-56" value="查询结果" style="text;html=1;align=center;verticalAlign=middle;resizable=0;points=[];autosize=1;strokeColor=none;fillColor=none;" parent="1" vertex="1">
          <mxGeometry x="382" y="1548" width="66" height="26" as="geometry" />
        </mxCell>
        <mxCell id="KH5UlhR5SknA2p_EEgMx-1" style="edgeStyle=orthogonalEdgeStyle;rounded=0;orthogonalLoop=1;jettySize=auto;html=1;exitX=1;exitY=0.5;exitDx=0;exitDy=0;entryX=0;entryY=0.5;entryDx=0;entryDy=0;" parent="1" source="KH5UlhR5SknA2p_EEgMx-2" target="KH5UlhR5SknA2p_EEgMx-4" edge="1">
          <mxGeometry relative="1" as="geometry" />
        </mxCell>
        <mxCell id="KH5UlhR5SknA2p_EEgMx-2" value="&lt;font style=&quot;font-size: 14px;&quot;&gt;HashA+&lt;/font&gt;&lt;span style=&quot;font-size: 14px;&quot;&gt;HashC&lt;/span&gt;" style="rounded=1;whiteSpace=wrap;html=1;fillColor=#dae8fc;strokeColor=#6c8ebf;" parent="1" vertex="1">
          <mxGeometry x="-22" y="2073" width="99" height="49" as="geometry" />
        </mxCell>
        <mxCell id="KH5UlhR5SknA2p_EEgMx-3" style="edgeStyle=orthogonalEdgeStyle;rounded=0;orthogonalLoop=1;jettySize=auto;html=1;exitX=1;exitY=0.5;exitDx=0;exitDy=0;entryX=0;entryY=0.5;entryDx=0;entryDy=0;" parent="1" source="KH5UlhR5SknA2p_EEgMx-4" target="KH5UlhR5SknA2p_EEgMx-5" edge="1">
          <mxGeometry relative="1" as="geometry" />
        </mxCell>
        <mxCell id="KH5UlhR5SknA2p_EEgMx-4" value="&lt;span style=&quot;font-size: 14px;&quot;&gt;HashC&lt;/span&gt;" style="rounded=1;whiteSpace=wrap;html=1;fillColor=#dae8fc;strokeColor=#6c8ebf;" parent="1" vertex="1">
          <mxGeometry x="113" y="2073" width="99" height="49" as="geometry" />
        </mxCell>
        <mxCell id="KH5UlhR5SknA2p_EEgMx-5" value="&lt;font style=&quot;font-size: 14px;&quot;&gt;value&lt;/font&gt;" style="ellipse;whiteSpace=wrap;html=1;fillColor=#f8cecc;strokeColor=#b85450;" parent="1" vertex="1">
          <mxGeometry x="257" y="2068.5" width="83" height="58" as="geometry" />
        </mxCell>
        <mxCell id="KH5UlhR5SknA2p_EEgMx-6" style="edgeStyle=orthogonalEdgeStyle;rounded=0;orthogonalLoop=1;jettySize=auto;html=1;exitX=1;exitY=0.5;exitDx=0;exitDy=0;entryX=0;entryY=0.5;entryDx=0;entryDy=0;" parent="1" source="KH5UlhR5SknA2p_EEgMx-7" target="KH5UlhR5SknA2p_EEgMx-19" edge="1">
          <mxGeometry relative="1" as="geometry" />
        </mxCell>
        <mxCell id="KH5UlhR5SknA2p_EEgMx-7" value="&lt;span style=&quot;font-size: 14px;&quot;&gt;HashB&lt;/span&gt;" style="ellipse;whiteSpace=wrap;html=1;fillColor=#d5e8d4;strokeColor=#82b366;" parent="1" vertex="1">
          <mxGeometry x="-191" y="2175" width="105" height="62" as="geometry" />
        </mxCell>
        <mxCell id="KH5UlhR5SknA2p_EEgMx-8" style="edgeStyle=orthogonalEdgeStyle;rounded=0;orthogonalLoop=1;jettySize=auto;html=1;exitX=0.5;exitY=1;exitDx=0;exitDy=0;entryX=0.5;entryY=0;entryDx=0;entryDy=0;" parent="1" source="KH5UlhR5SknA2p_EEgMx-9" target="KH5UlhR5SknA2p_EEgMx-4" edge="1">
          <mxGeometry relative="1" as="geometry" />
        </mxCell>
        <mxCell id="KH5UlhR5SknA2p_EEgMx-9" value="&lt;font style=&quot;font-size: 14px;&quot;&gt;HashA+HashB+&lt;/font&gt;&lt;span style=&quot;font-size: 14px;&quot;&gt;HashC&lt;/span&gt;" style="ellipse;whiteSpace=wrap;html=1;fillColor=#d5e8d4;strokeColor=#82b366;" parent="1" vertex="1">
          <mxGeometry x="212" y="1927" width="164" height="62" as="geometry" />
        </mxCell>
        <mxCell id="KH5UlhR5SknA2p_EEgMx-10" style="edgeStyle=orthogonalEdgeStyle;rounded=0;orthogonalLoop=1;jettySize=auto;html=1;exitX=1;exitY=0.5;exitDx=0;exitDy=0;entryX=0;entryY=0.5;entryDx=0;entryDy=0;" parent="1" source="KH5UlhR5SknA2p_EEgMx-11" target="KH5UlhR5SknA2p_EEgMx-2" edge="1">
          <mxGeometry relative="1" as="geometry" />
        </mxCell>
        <mxCell id="KH5UlhR5SknA2p_EEgMx-11" value="&lt;font style=&quot;font-size: 14px;&quot;&gt;HashA+&lt;/font&gt;&lt;span style=&quot;font-size: 14px;&quot;&gt;HashB&lt;/span&gt;" style="ellipse;whiteSpace=wrap;html=1;fillColor=#d5e8d4;strokeColor=#82b366;" parent="1" vertex="1">
          <mxGeometry x="-185" y="2103.25" width="99" height="62" as="geometry" />
        </mxCell>
        <mxCell id="KH5UlhR5SknA2p_EEgMx-12" style="edgeStyle=orthogonalEdgeStyle;rounded=0;orthogonalLoop=1;jettySize=auto;html=1;exitX=1;exitY=0.5;exitDx=0;exitDy=0;entryX=0;entryY=0.5;entryDx=0;entryDy=0;" parent="1" source="KH5UlhR5SknA2p_EEgMx-13" target="KH5UlhR5SknA2p_EEgMx-2" edge="1">
          <mxGeometry relative="1" as="geometry" />
        </mxCell>
        <mxCell id="KH5UlhR5SknA2p_EEgMx-13" value="&lt;font style=&quot;font-size: 14px;&quot;&gt;HashA&lt;/font&gt;" style="ellipse;whiteSpace=wrap;html=1;fillColor=#d5e8d4;strokeColor=#82b366;" parent="1" vertex="1">
          <mxGeometry x="-186" y="2029.75" width="100" height="62" as="geometry" />
        </mxCell>
        <mxCell id="KH5UlhR5SknA2p_EEgMx-14" style="edgeStyle=orthogonalEdgeStyle;rounded=0;orthogonalLoop=1;jettySize=auto;html=1;exitX=0.5;exitY=1;exitDx=0;exitDy=0;entryX=0.5;entryY=0;entryDx=0;entryDy=0;" parent="1" source="KH5UlhR5SknA2p_EEgMx-15" target="KH5UlhR5SknA2p_EEgMx-4" edge="1">
          <mxGeometry relative="1" as="geometry" />
        </mxCell>
        <mxCell id="KH5UlhR5SknA2p_EEgMx-15" value="&lt;span style=&quot;font-size: 14px;&quot;&gt;HashC&lt;/span&gt;" style="ellipse;whiteSpace=wrap;html=1;fillColor=#d5e8d4;strokeColor=#82b366;" parent="1" vertex="1">
          <mxGeometry x="121" y="1927" width="83" height="62" as="geometry" />
        </mxCell>
        <mxCell id="KH5UlhR5SknA2p_EEgMx-16" style="edgeStyle=orthogonalEdgeStyle;rounded=0;orthogonalLoop=1;jettySize=auto;html=1;exitX=0.5;exitY=1;exitDx=0;exitDy=0;" parent="1" source="KH5UlhR5SknA2p_EEgMx-17" edge="1">
          <mxGeometry relative="1" as="geometry">
            <mxPoint x="163" y="2073" as="targetPoint" />
          </mxGeometry>
        </mxCell>
        <mxCell id="KH5UlhR5SknA2p_EEgMx-17" value="&lt;font style=&quot;font-size: 14px;&quot;&gt;HashB+&lt;/font&gt;&lt;span style=&quot;font-size: 14px;&quot;&gt;HashC&lt;/span&gt;" style="ellipse;whiteSpace=wrap;html=1;fillColor=#d5e8d4;strokeColor=#82b366;" parent="1" vertex="1">
          <mxGeometry x="11" y="1927" width="96" height="62" as="geometry" />
        </mxCell>
        <mxCell id="KH5UlhR5SknA2p_EEgMx-18" style="edgeStyle=orthogonalEdgeStyle;rounded=0;orthogonalLoop=1;jettySize=auto;html=1;exitX=0.5;exitY=0;exitDx=0;exitDy=0;entryX=0.5;entryY=1;entryDx=0;entryDy=0;" parent="1" source="KH5UlhR5SknA2p_EEgMx-19" target="KH5UlhR5SknA2p_EEgMx-2" edge="1">
          <mxGeometry relative="1" as="geometry" />
        </mxCell>
        <mxCell id="KH5UlhR5SknA2p_EEgMx-19" value="&lt;font style=&quot;font-size: 14px;&quot;&gt;HashB+&lt;/font&gt;&lt;span style=&quot;font-size: 14px;&quot;&gt;HashA&lt;/span&gt;" style="rounded=1;whiteSpace=wrap;html=1;fillColor=#dae8fc;strokeColor=#6c8ebf;" parent="1" vertex="1">
          <mxGeometry x="-22" y="2181.5" width="99" height="49" as="geometry" />
        </mxCell>
        <mxCell id="KH5UlhR5SknA2p_EEgMx-20" value="" style="ellipse;whiteSpace=wrap;html=1;fillColor=#d5e8d4;strokeColor=#82b366;" parent="1" vertex="1">
          <mxGeometry x="242" y="2214.5" width="25" height="19" as="geometry" />
        </mxCell>
        <mxCell id="KH5UlhR5SknA2p_EEgMx-21" value="用户请求" style="text;html=1;align=center;verticalAlign=middle;resizable=0;points=[];autosize=1;strokeColor=none;fillColor=none;" parent="1" vertex="1">
          <mxGeometry x="267" y="2211" width="66" height="26" as="geometry" />
        </mxCell>
        <mxCell id="KH5UlhR5SknA2p_EEgMx-22" value="" style="rounded=1;whiteSpace=wrap;html=1;fillColor=#dae8fc;strokeColor=#6c8ebf;" parent="1" vertex="1">
          <mxGeometry x="242" y="2242.5" width="28" height="15" as="geometry" />
        </mxCell>
        <mxCell id="KH5UlhR5SknA2p_EEgMx-23" value="关联key查询" style="text;html=1;align=center;verticalAlign=middle;resizable=0;points=[];autosize=1;strokeColor=none;fillColor=none;" parent="1" vertex="1">
          <mxGeometry x="265" y="2237" width="85" height="26" as="geometry" />
        </mxCell>
        <mxCell id="KH5UlhR5SknA2p_EEgMx-24" value="" style="ellipse;whiteSpace=wrap;html=1;fillColor=#f8cecc;strokeColor=#b85450;" parent="1" vertex="1">
          <mxGeometry x="244" y="2267.5" width="24" height="18" as="geometry" />
        </mxCell>
        <mxCell id="KH5UlhR5SknA2p_EEgMx-25" value="查询结果" style="text;html=1;align=center;verticalAlign=middle;resizable=0;points=[];autosize=1;strokeColor=none;fillColor=none;" parent="1" vertex="1">
          <mxGeometry x="267" y="2263" width="66" height="26" as="geometry" />
        </mxCell>
        <mxCell id="KH5UlhR5SknA2p_EEgMx-26" style="edgeStyle=orthogonalEdgeStyle;rounded=0;orthogonalLoop=1;jettySize=auto;html=1;exitX=1;exitY=0.5;exitDx=0;exitDy=0;entryX=0;entryY=0.5;entryDx=0;entryDy=0;" parent="1" source="KH5UlhR5SknA2p_EEgMx-27" target="KH5UlhR5SknA2p_EEgMx-29" edge="1">
          <mxGeometry relative="1" as="geometry" />
        </mxCell>
        <mxCell id="KH5UlhR5SknA2p_EEgMx-27" value="&lt;font style=&quot;font-size: 14px;&quot;&gt;HashA+&lt;/font&gt;&lt;span style=&quot;font-size: 14px;&quot;&gt;HashC&lt;/span&gt;" style="rounded=1;whiteSpace=wrap;html=1;fillColor=#dae8fc;strokeColor=#6c8ebf;" parent="1" vertex="1">
          <mxGeometry x="1" y="2658" width="99" height="49" as="geometry" />
        </mxCell>
        <mxCell id="KH5UlhR5SknA2p_EEgMx-28" style="edgeStyle=orthogonalEdgeStyle;rounded=0;orthogonalLoop=1;jettySize=auto;html=1;exitX=1;exitY=0.5;exitDx=0;exitDy=0;entryX=0;entryY=0.5;entryDx=0;entryDy=0;" parent="1" source="KH5UlhR5SknA2p_EEgMx-29" target="KH5UlhR5SknA2p_EEgMx-30" edge="1">
          <mxGeometry relative="1" as="geometry" />
        </mxCell>
        <mxCell id="KH5UlhR5SknA2p_EEgMx-29" value="&lt;span style=&quot;font-size: 14px;&quot;&gt;HashC&lt;/span&gt;" style="rounded=1;whiteSpace=wrap;html=1;fillColor=#dae8fc;strokeColor=#6c8ebf;" parent="1" vertex="1">
          <mxGeometry x="136" y="2658" width="99" height="49" as="geometry" />
        </mxCell>
        <mxCell id="KH5UlhR5SknA2p_EEgMx-30" value="&lt;font style=&quot;font-size: 14px;&quot;&gt;value&lt;/font&gt;" style="ellipse;whiteSpace=wrap;html=1;fillColor=#f8cecc;strokeColor=#b85450;" parent="1" vertex="1">
          <mxGeometry x="280" y="2653.5" width="83" height="58" as="geometry" />
        </mxCell>
        <mxCell id="KH5UlhR5SknA2p_EEgMx-31" style="edgeStyle=orthogonalEdgeStyle;rounded=0;orthogonalLoop=1;jettySize=auto;html=1;exitX=1;exitY=0.5;exitDx=0;exitDy=0;entryX=0;entryY=0.5;entryDx=0;entryDy=0;" parent="1" source="KH5UlhR5SknA2p_EEgMx-32" target="KH5UlhR5SknA2p_EEgMx-44" edge="1">
          <mxGeometry relative="1" as="geometry" />
        </mxCell>
        <mxCell id="KH5UlhR5SknA2p_EEgMx-32" value="&lt;span style=&quot;font-size: 14px;&quot;&gt;HashB&lt;/span&gt;" style="ellipse;whiteSpace=wrap;html=1;fillColor=#d5e8d4;strokeColor=#82b366;" parent="1" vertex="1">
          <mxGeometry x="-168" y="2760" width="105" height="62" as="geometry" />
        </mxCell>
        <mxCell id="KH5UlhR5SknA2p_EEgMx-33" style="edgeStyle=orthogonalEdgeStyle;rounded=0;orthogonalLoop=1;jettySize=auto;html=1;exitX=0.5;exitY=1;exitDx=0;exitDy=0;entryX=0.5;entryY=0;entryDx=0;entryDy=0;" parent="1" source="KH5UlhR5SknA2p_EEgMx-34" target="KH5UlhR5SknA2p_EEgMx-29" edge="1">
          <mxGeometry relative="1" as="geometry" />
        </mxCell>
        <mxCell id="KH5UlhR5SknA2p_EEgMx-34" value="&lt;font style=&quot;font-size: 14px;&quot;&gt;HashA+HashB+&lt;/font&gt;&lt;span style=&quot;font-size: 14px;&quot;&gt;HashC&lt;/span&gt;" style="ellipse;whiteSpace=wrap;html=1;fillColor=#d5e8d4;strokeColor=#82b366;" parent="1" vertex="1">
          <mxGeometry x="235" y="2512" width="164" height="62" as="geometry" />
        </mxCell>
        <mxCell id="KH5UlhR5SknA2p_EEgMx-35" style="edgeStyle=orthogonalEdgeStyle;rounded=0;orthogonalLoop=1;jettySize=auto;html=1;exitX=1;exitY=0.5;exitDx=0;exitDy=0;entryX=0;entryY=0.5;entryDx=0;entryDy=0;" parent="1" source="KH5UlhR5SknA2p_EEgMx-36" target="KH5UlhR5SknA2p_EEgMx-27" edge="1">
          <mxGeometry relative="1" as="geometry" />
        </mxCell>
        <mxCell id="KH5UlhR5SknA2p_EEgMx-36" value="&lt;font style=&quot;font-size: 14px;&quot;&gt;HashA+&lt;/font&gt;&lt;span style=&quot;font-size: 14px;&quot;&gt;HashB&lt;/span&gt;" style="ellipse;whiteSpace=wrap;html=1;fillColor=#d5e8d4;strokeColor=#82b366;" parent="1" vertex="1">
          <mxGeometry x="-162" y="2688.25" width="99" height="62" as="geometry" />
        </mxCell>
        <mxCell id="KH5UlhR5SknA2p_EEgMx-37" style="edgeStyle=orthogonalEdgeStyle;rounded=0;orthogonalLoop=1;jettySize=auto;html=1;exitX=1;exitY=0.5;exitDx=0;exitDy=0;entryX=0;entryY=0.5;entryDx=0;entryDy=0;" parent="1" source="KH5UlhR5SknA2p_EEgMx-38" target="KH5UlhR5SknA2p_EEgMx-27" edge="1">
          <mxGeometry relative="1" as="geometry" />
        </mxCell>
        <mxCell id="KH5UlhR5SknA2p_EEgMx-38" value="&lt;font style=&quot;font-size: 14px;&quot;&gt;HashA&lt;/font&gt;" style="ellipse;whiteSpace=wrap;html=1;fillColor=#d5e8d4;strokeColor=#82b366;" parent="1" vertex="1">
          <mxGeometry x="-163" y="2614.75" width="100" height="62" as="geometry" />
        </mxCell>
        <mxCell id="KH5UlhR5SknA2p_EEgMx-39" style="edgeStyle=orthogonalEdgeStyle;rounded=0;orthogonalLoop=1;jettySize=auto;html=1;exitX=0.5;exitY=1;exitDx=0;exitDy=0;entryX=0.5;entryY=0;entryDx=0;entryDy=0;" parent="1" source="KH5UlhR5SknA2p_EEgMx-40" target="KH5UlhR5SknA2p_EEgMx-29" edge="1">
          <mxGeometry relative="1" as="geometry" />
        </mxCell>
        <mxCell id="KH5UlhR5SknA2p_EEgMx-40" value="&lt;span style=&quot;font-size: 14px;&quot;&gt;HashC&lt;/span&gt;" style="ellipse;whiteSpace=wrap;html=1;fillColor=#d5e8d4;strokeColor=#82b366;" parent="1" vertex="1">
          <mxGeometry x="144" y="2512" width="83" height="62" as="geometry" />
        </mxCell>
        <mxCell id="KH5UlhR5SknA2p_EEgMx-41" style="edgeStyle=orthogonalEdgeStyle;rounded=0;orthogonalLoop=1;jettySize=auto;html=1;exitX=0.5;exitY=1;exitDx=0;exitDy=0;" parent="1" source="KH5UlhR5SknA2p_EEgMx-42" edge="1">
          <mxGeometry relative="1" as="geometry">
            <mxPoint x="186" y="2658" as="targetPoint" />
          </mxGeometry>
        </mxCell>
        <mxCell id="KH5UlhR5SknA2p_EEgMx-42" value="&lt;font style=&quot;font-size: 14px;&quot;&gt;HashB+&lt;/font&gt;&lt;span style=&quot;font-size: 14px;&quot;&gt;HashC&lt;/span&gt;" style="ellipse;whiteSpace=wrap;html=1;fillColor=#d5e8d4;strokeColor=#82b366;" parent="1" vertex="1">
          <mxGeometry x="34" y="2512" width="96" height="62" as="geometry" />
        </mxCell>
        <mxCell id="KH5UlhR5SknA2p_EEgMx-76" style="edgeStyle=orthogonalEdgeStyle;rounded=0;orthogonalLoop=1;jettySize=auto;html=1;exitX=1;exitY=0.5;exitDx=0;exitDy=0;entryX=0.5;entryY=1;entryDx=0;entryDy=0;" parent="1" source="KH5UlhR5SknA2p_EEgMx-44" target="KH5UlhR5SknA2p_EEgMx-29" edge="1">
          <mxGeometry relative="1" as="geometry" />
        </mxCell>
        <mxCell id="KH5UlhR5SknA2p_EEgMx-44" value="&lt;font style=&quot;font-size: 14px;&quot;&gt;HashB+&lt;/font&gt;&lt;span style=&quot;font-size: 14px;&quot;&gt;HashC&lt;/span&gt;" style="rounded=1;whiteSpace=wrap;html=1;fillColor=#dae8fc;strokeColor=#6c8ebf;" parent="1" vertex="1">
          <mxGeometry x="1" y="2766.5" width="99" height="49" as="geometry" />
        </mxCell>
        <mxCell id="KH5UlhR5SknA2p_EEgMx-45" value="" style="ellipse;whiteSpace=wrap;html=1;fillColor=#d5e8d4;strokeColor=#82b366;" parent="1" vertex="1">
          <mxGeometry x="265" y="2799.5" width="25" height="19" as="geometry" />
        </mxCell>
        <mxCell id="KH5UlhR5SknA2p_EEgMx-46" value="用户请求" style="text;html=1;align=center;verticalAlign=middle;resizable=0;points=[];autosize=1;strokeColor=none;fillColor=none;" parent="1" vertex="1">
          <mxGeometry x="290" y="2796" width="66" height="26" as="geometry" />
        </mxCell>
        <mxCell id="KH5UlhR5SknA2p_EEgMx-47" value="" style="rounded=1;whiteSpace=wrap;html=1;fillColor=#dae8fc;strokeColor=#6c8ebf;" parent="1" vertex="1">
          <mxGeometry x="265" y="2827.5" width="28" height="15" as="geometry" />
        </mxCell>
        <mxCell id="KH5UlhR5SknA2p_EEgMx-48" value="关联key查询" style="text;html=1;align=center;verticalAlign=middle;resizable=0;points=[];autosize=1;strokeColor=none;fillColor=none;" parent="1" vertex="1">
          <mxGeometry x="288" y="2822" width="85" height="26" as="geometry" />
        </mxCell>
        <mxCell id="KH5UlhR5SknA2p_EEgMx-49" value="" style="ellipse;whiteSpace=wrap;html=1;fillColor=#f8cecc;strokeColor=#b85450;" parent="1" vertex="1">
          <mxGeometry x="267" y="2852.5" width="24" height="18" as="geometry" />
        </mxCell>
        <mxCell id="KH5UlhR5SknA2p_EEgMx-50" value="查询结果" style="text;html=1;align=center;verticalAlign=middle;resizable=0;points=[];autosize=1;strokeColor=none;fillColor=none;" parent="1" vertex="1">
          <mxGeometry x="290" y="2848" width="66" height="26" as="geometry" />
        </mxCell>
        <mxCell id="KH5UlhR5SknA2p_EEgMx-51" style="edgeStyle=orthogonalEdgeStyle;rounded=0;orthogonalLoop=1;jettySize=auto;html=1;exitX=1;exitY=0.5;exitDx=0;exitDy=0;entryX=0;entryY=0.5;entryDx=0;entryDy=0;" parent="1" source="KH5UlhR5SknA2p_EEgMx-52" target="KH5UlhR5SknA2p_EEgMx-54" edge="1">
          <mxGeometry relative="1" as="geometry" />
        </mxCell>
        <mxCell id="KH5UlhR5SknA2p_EEgMx-52" value="&lt;font style=&quot;font-size: 14px;&quot;&gt;md5+sha256&lt;/font&gt;" style="rounded=1;whiteSpace=wrap;html=1;fillColor=#dae8fc;strokeColor=#6c8ebf;" parent="1" vertex="1">
          <mxGeometry x="12" y="3246" width="99" height="49" as="geometry" />
        </mxCell>
        <mxCell id="KH5UlhR5SknA2p_EEgMx-53" style="edgeStyle=orthogonalEdgeStyle;rounded=0;orthogonalLoop=1;jettySize=auto;html=1;exitX=1;exitY=0.5;exitDx=0;exitDy=0;entryX=0;entryY=0.5;entryDx=0;entryDy=0;" parent="1" source="KH5UlhR5SknA2p_EEgMx-54" target="KH5UlhR5SknA2p_EEgMx-55" edge="1">
          <mxGeometry relative="1" as="geometry" />
        </mxCell>
        <mxCell id="KH5UlhR5SknA2p_EEgMx-54" value="&lt;font style=&quot;font-size: 14px;&quot;&gt;sha256&lt;/font&gt;" style="rounded=1;whiteSpace=wrap;html=1;fillColor=#dae8fc;strokeColor=#6c8ebf;" parent="1" vertex="1">
          <mxGeometry x="156" y="3246" width="99" height="49" as="geometry" />
        </mxCell>
        <mxCell id="KH5UlhR5SknA2p_EEgMx-55" value="&lt;font style=&quot;font-size: 14px;&quot;&gt;value&lt;/font&gt;" style="ellipse;whiteSpace=wrap;html=1;fillColor=#f8cecc;strokeColor=#b85450;" parent="1" vertex="1">
          <mxGeometry x="300" y="3241.5" width="83" height="58" as="geometry" />
        </mxCell>
        <mxCell id="KH5UlhR5SknA2p_EEgMx-56" style="edgeStyle=orthogonalEdgeStyle;rounded=0;orthogonalLoop=1;jettySize=auto;html=1;exitX=1;exitY=0.5;exitDx=0;exitDy=0;entryX=0;entryY=0.5;entryDx=0;entryDy=0;" parent="1" source="KH5UlhR5SknA2p_EEgMx-57" target="KH5UlhR5SknA2p_EEgMx-69" edge="1">
          <mxGeometry relative="1" as="geometry" />
        </mxCell>
        <mxCell id="KH5UlhR5SknA2p_EEgMx-57" value="&lt;font style=&quot;font-size: 14px;&quot;&gt;sha1&lt;/font&gt;" style="ellipse;whiteSpace=wrap;html=1;fillColor=#d5e8d4;strokeColor=#82b366;" parent="1" vertex="1">
          <mxGeometry x="-126" y="3348" width="83" height="62" as="geometry" />
        </mxCell>
        <mxCell id="KH5UlhR5SknA2p_EEgMx-58" style="edgeStyle=orthogonalEdgeStyle;rounded=0;orthogonalLoop=1;jettySize=auto;html=1;exitX=0.5;exitY=1;exitDx=0;exitDy=0;entryX=0.5;entryY=0;entryDx=0;entryDy=0;" parent="1" source="KH5UlhR5SknA2p_EEgMx-59" target="KH5UlhR5SknA2p_EEgMx-54" edge="1">
          <mxGeometry relative="1" as="geometry" />
        </mxCell>
        <mxCell id="KH5UlhR5SknA2p_EEgMx-59" value="&lt;font style=&quot;font-size: 14px;&quot;&gt;md5+sha1+sha256&lt;/font&gt;" style="ellipse;whiteSpace=wrap;html=1;fillColor=#d5e8d4;strokeColor=#82b366;" parent="1" vertex="1">
          <mxGeometry x="270" y="3100" width="83" height="62" as="geometry" />
        </mxCell>
        <mxCell id="KH5UlhR5SknA2p_EEgMx-60" style="edgeStyle=orthogonalEdgeStyle;rounded=0;orthogonalLoop=1;jettySize=auto;html=1;exitX=1;exitY=0.5;exitDx=0;exitDy=0;entryX=0;entryY=0.5;entryDx=0;entryDy=0;" parent="1" source="KH5UlhR5SknA2p_EEgMx-61" target="KH5UlhR5SknA2p_EEgMx-52" edge="1">
          <mxGeometry relative="1" as="geometry" />
        </mxCell>
        <mxCell id="KH5UlhR5SknA2p_EEgMx-61" value="&lt;font style=&quot;font-size: 14px;&quot;&gt;md5+sha1&lt;/font&gt;" style="ellipse;whiteSpace=wrap;html=1;fillColor=#d5e8d4;strokeColor=#82b366;" parent="1" vertex="1">
          <mxGeometry x="-126" y="3276.25" width="83" height="62" as="geometry" />
        </mxCell>
        <mxCell id="KH5UlhR5SknA2p_EEgMx-62" style="edgeStyle=orthogonalEdgeStyle;rounded=0;orthogonalLoop=1;jettySize=auto;html=1;exitX=1;exitY=0.5;exitDx=0;exitDy=0;entryX=0;entryY=0.5;entryDx=0;entryDy=0;" parent="1" source="KH5UlhR5SknA2p_EEgMx-63" target="KH5UlhR5SknA2p_EEgMx-52" edge="1">
          <mxGeometry relative="1" as="geometry" />
        </mxCell>
        <mxCell id="KH5UlhR5SknA2p_EEgMx-63" value="&lt;font style=&quot;font-size: 14px;&quot;&gt;md5&lt;/font&gt;" style="ellipse;whiteSpace=wrap;html=1;fillColor=#d5e8d4;strokeColor=#82b366;" parent="1" vertex="1">
          <mxGeometry x="-126" y="3202.75" width="83" height="62" as="geometry" />
        </mxCell>
        <mxCell id="KH5UlhR5SknA2p_EEgMx-64" style="edgeStyle=orthogonalEdgeStyle;rounded=0;orthogonalLoop=1;jettySize=auto;html=1;exitX=0.5;exitY=1;exitDx=0;exitDy=0;entryX=0.5;entryY=0;entryDx=0;entryDy=0;" parent="1" source="KH5UlhR5SknA2p_EEgMx-65" target="KH5UlhR5SknA2p_EEgMx-54" edge="1">
          <mxGeometry relative="1" as="geometry" />
        </mxCell>
        <mxCell id="KH5UlhR5SknA2p_EEgMx-65" value="&lt;font style=&quot;font-size: 14px;&quot;&gt;sha256&lt;/font&gt;" style="ellipse;whiteSpace=wrap;html=1;fillColor=#d5e8d4;strokeColor=#82b366;" parent="1" vertex="1">
          <mxGeometry x="164" y="3100" width="83" height="62" as="geometry" />
        </mxCell>
        <mxCell id="KH5UlhR5SknA2p_EEgMx-66" style="edgeStyle=orthogonalEdgeStyle;rounded=0;orthogonalLoop=1;jettySize=auto;html=1;exitX=0.5;exitY=1;exitDx=0;exitDy=0;" parent="1" source="KH5UlhR5SknA2p_EEgMx-67" edge="1">
          <mxGeometry relative="1" as="geometry">
            <mxPoint x="206" y="3246" as="targetPoint" />
          </mxGeometry>
        </mxCell>
        <mxCell id="KH5UlhR5SknA2p_EEgMx-67" value="&lt;font style=&quot;font-size: 14px;&quot;&gt;sha1+sha256&lt;/font&gt;" style="ellipse;whiteSpace=wrap;html=1;fillColor=#d5e8d4;strokeColor=#82b366;" parent="1" vertex="1">
          <mxGeometry x="67" y="3100" width="83" height="62" as="geometry" />
        </mxCell>
        <mxCell id="KH5UlhR5SknA2p_EEgMx-68" style="edgeStyle=orthogonalEdgeStyle;rounded=0;orthogonalLoop=1;jettySize=auto;html=1;exitX=0.5;exitY=0;exitDx=0;exitDy=0;entryX=0.5;entryY=1;entryDx=0;entryDy=0;" parent="1" source="KH5UlhR5SknA2p_EEgMx-69" target="KH5UlhR5SknA2p_EEgMx-54" edge="1">
          <mxGeometry relative="1" as="geometry" />
        </mxCell>
        <mxCell id="KH5UlhR5SknA2p_EEgMx-69" value="&lt;font style=&quot;font-size: 14px;&quot;&gt;sha1+sha256&lt;/font&gt;" style="rounded=1;whiteSpace=wrap;html=1;fillColor=#dae8fc;strokeColor=#6c8ebf;" parent="1" vertex="1">
          <mxGeometry x="156" y="3354.5" width="99" height="49" as="geometry" />
        </mxCell>
        <mxCell id="KH5UlhR5SknA2p_EEgMx-70" value="" style="ellipse;whiteSpace=wrap;html=1;fillColor=#d5e8d4;strokeColor=#82b366;" parent="1" vertex="1">
          <mxGeometry x="285" y="3387.5" width="25" height="19" as="geometry" />
        </mxCell>
        <mxCell id="KH5UlhR5SknA2p_EEgMx-71" value="用户请求" style="text;html=1;align=center;verticalAlign=middle;resizable=0;points=[];autosize=1;strokeColor=none;fillColor=none;" parent="1" vertex="1">
          <mxGeometry x="310" y="3384" width="66" height="26" as="geometry" />
        </mxCell>
        <mxCell id="KH5UlhR5SknA2p_EEgMx-72" value="" style="rounded=1;whiteSpace=wrap;html=1;fillColor=#dae8fc;strokeColor=#6c8ebf;" parent="1" vertex="1">
          <mxGeometry x="285" y="3415.5" width="28" height="15" as="geometry" />
        </mxCell>
        <mxCell id="KH5UlhR5SknA2p_EEgMx-73" value="关联key查询" style="text;html=1;align=center;verticalAlign=middle;resizable=0;points=[];autosize=1;strokeColor=none;fillColor=none;" parent="1" vertex="1">
          <mxGeometry x="308" y="3410" width="85" height="26" as="geometry" />
        </mxCell>
        <mxCell id="KH5UlhR5SknA2p_EEgMx-74" value="" style="ellipse;whiteSpace=wrap;html=1;fillColor=#f8cecc;strokeColor=#b85450;" parent="1" vertex="1">
          <mxGeometry x="287" y="3440.5" width="24" height="18" as="geometry" />
        </mxCell>
        <mxCell id="KH5UlhR5SknA2p_EEgMx-75" value="查询结果" style="text;html=1;align=center;verticalAlign=middle;resizable=0;points=[];autosize=1;strokeColor=none;fillColor=none;" parent="1" vertex="1">
          <mxGeometry x="310" y="3436" width="66" height="26" as="geometry" />
        </mxCell>
        <mxCell id="Tvq0A719ylWsHTN5NcDF-1" value="* 项目：" style="text;html=1;align=center;verticalAlign=middle;resizable=0;points=[];autosize=1;strokeColor=none;fillColor=none;" vertex="1" parent="1">
          <mxGeometry x="-420" y="3740" width="62" height="26" as="geometry" />
        </mxCell>
        <mxCell id="Tvq0A719ylWsHTN5NcDF-2" value="下拉框" style="rounded=0;whiteSpace=wrap;html=1;" vertex="1" parent="1">
          <mxGeometry x="-368" y="3742.5" width="74" height="21" as="geometry" />
        </mxCell>
        <mxCell id="Tvq0A719ylWsHTN5NcDF-8" value="" style="shape=image;verticalLabelPosition=bottom;labelBackgroundColor=default;verticalAlign=top;aspect=fixed;imageAspect=0;image=data:image/png,iVBORw0KGgoAAAANSUhEUgAAAa0AAAAsCAYAAADWzef+AAAAAXNSR0IArs4c6QAAAARnQU1BAACxjwv8YQUAAA+ISURBVHhe7ZxtUB3VGcf/vOQFAhETh3AvRJKQtGZqk3AvSJxOPzjTzrQ6EeRrnakaZ4gSR9uPDVHsJP3QD44ZQ0NsYlrbfsUQ6kunTp3qaEXeEsTXBJEI9xLECBLAJIT0Obt7uOcuu3t3L/eGS3h+Mzvs2T1nWc55zvM/zzl7SLtOgGGSiTSxtDT9p4pqfup9O7O0egZjj5d6dOMKuP6ZBSbd+MkwC4OdExTX5aGmGfeYBwRq/cUSKJnfazmGSTIsWkxy8eLk7PKqTpPxjlp/TnUpBcoqj1M5hrmBsGgx80eIjTzMsLNbGGRbsAAxNxksWsz8MAuVnXi5ZT5lmQhCmBIpTtwuTIqwJD7E6P0ybJwxCUU1HeEgzWkVeU+9blc+kc72ZkatP4HbevNaz+Z2YpgkUbLBZ5zZs2REy01lMC6J5cSsnKKTmcl8VuUYa6zq0229ua1n8+/gdmGSiFs/zdODTPJQnZ6dw2NH6B1zvcrDC7Hys2AxKQqLFuOdWA7M7r64bj6Y+Imn/sxiZAe3E5OisGgxzrh1cna4LT/f37PUEfUnj1hYiZDbsgyzwLBoMXMxO0ArZyYdn52j8zI6V5/Bo3rvmNtApK3axe6a1XWGSVFYtJho7ByYk2Ozu+ckQNJZqmVZsLwzn/oztxvXP7MIYNFiIpgdoDwk8Tg5uzzqdfPvWcqIOjbXcyzU+lPP7Z5j/h1qGYZJcVi0mAiq45O4daBeHa2AnWU0ah26qU+vdW6ua65/ZhHC+7ScmB5FaGQZ/AWrjAuSCYTCV5Hvy0OmcWVRIpreyWlJ0xB5VDMxl1HzMfEj6vH08wjs/oeepvq06p5pSns8eLwNvy21qXeRh9uKWSTE9NOGPd9Q0Qq11GPfyTD8VfU4uEt5uc5GPNzQhWDtUez1vYZ9dc0IGbei8aH6QD3Uom7wJlrXMPJFL/rHrwEzVzF5JR3ZKzOMe5Jr+H5yBsuzl1GomoHVRSXYstacZxHg5MCs7rHDSx7mujXS37T8Bj/79z1484VKrNWuGMj8ArftxzAJZxpT4xcxMjyOKytykb92DXKz4hvKuxItwtX04Mzh+zHdfMFIWSBEZ3eN6ahHi8v/ntTR2qX/bHoNId+9OHj8KE5EHfWo9ihU8TOG8MgEZlauwupsEqL05VidS+dRx3Kkp2Ugm85XzkxgeHjMKHuTEMvhqQ6TSRym+v7m1FP4+ZuqYH2Dk088j25xymLELCgzGOvrxNtvvY22jwfw9egYxi4M4OP2t/GfdzrRNzZj5Es8zpFW51FM/64XuONTpN1Tg+tHBpD+Rs1cpTMiJRlBdRypweF2H4JlJETtNspVtgcHi5qNyGsPdrY2ogml2Fu7B8E5AhVGS109msI3ItK6iA8/OA9s2IEf51/FpUtATs4y454kcn34k9M4i9vxk61rjHupBNXb/mfxSkiKUClqj1H96ikSn04cfvQoOskBCjOYjYA1k6CyT/8eTVRWn47aHl1WcZp6e1PbHVfuOyLa8yhQa27LLhze3YgOIzUnIrcibIrMya5OPFZqJARxPDNZxBoMKHQfKsdD14+h88ltpvzdeC5wHJteP4SqdZR0GkC4+D3JRfZbIyn6d5SNOLeNbldGwmGWJXH2ZyBsqoFuH7gXfuOSE3IGScfuPYy6QCUOunxu6jKFUHcbPp/yYVtwC9aYAqvpb8+i40wYWT8oxzZ/lnE1NrN+2q6fGNedI61ADTLfeBBpn1L+tyizlWA5UExGqEZMB6t0CxHGGe1YCrDrAOU5QI1tZUQ3nGu4+EUX3nm/B109PfRTnKtH5Ppn314zyqQeoZaj6H+gES8d04/aQBca9lM0q90VovQihiqf0e6dOFAJnKzH4U7tJpV9Ef1VR7R2e+nPR1AbPI2Gp19HSBiSakzUwZtmHYsLhEOgKDziyCSiUzciLG3G9D7WUJmG86ietTGyn/ZG7JsN8U3PpPu+mM+8ATgJDdF9qAwPvUwnL+9GIFg+e5QGyuh4BH/Du3j2l2V47jTlWXBhskezv2rZNkext4xEqk6xP6f2poFwU1HEfxysApoovxS4WRJmfzpCgB62XZ6wgN5z38kCEiqrv1Ghs9n2dy42pvq68fn361FRMVewBJm3bkHFXetx+Ww3+iaNi/Fg7ieGrTtr0IVXMf2LOuAPp5B+z38x89SrFBR6IXok5YjlFCMdVgaQdDKwZlMpfroz9vHDW1N3Lcu/qx57A0aCCFbdD3+on9wFQZ3olfAOPCCGmsI4fPeiWkTGYqqWjMO/6xm9rGE4Wtnweb2sQsfJZvjK1AGIA6KN64TIWIxEtU5dimo59FXfxxYfDXbUZ1F5GhiFBob0ZLgL71N0vrNMjoRKcTc9MzyY2t5j25Pt6OxoQ2en8bP9GB7Er/BXSnfNHv/CpuPKVKHVscDMtb/KiA3Fau/Anqioy7+rktp5CCFT0yXM/ggRse0bqMSJWpfPE8LbJGaYxLvp6H/jB+iIek+RbwjBWTtczAzj7Plp5N+xEXoMNY2pqWntLOo8eyPu9M/gq95hPR0vFgM8Z9Fadx9FWqeQQYaXXvlHZD5/n2OBEI2UhNDIkL6fDKpDCNcRJ8cTjRaFaaOWG7mOZcdVXBodx3dT1zA9NYHR0QlMTl/D5HfjGL101ciTYliN4qUDG/pKHwBQntDgBephFVGd11dEFU4OXcujOj1xLsuqkBM4PFiJ6gojHQtyRFo0ZCRVQoMkNGUO7+OS8IDiLXyl2OkL4305RW2Myn2FKeA8rNrJiTn516LqhaewzUgtCkiwZFt6bu9weM6AKZH2Jwg+Rn4nagYoFkPojxoUET4fDaXCdN1IEyLibCqk9ywyLixmvh3B6Ip8bF5tpC8Poqf1PfQMT2G45z20fjSIK8atrNtvw7LREVw00pY4+Sv505THy2xfTKTg7KURk6C4qkYXnnYyLpdTMlL4xIccCx5OT46gv38AfeFxXLoQRi9ZYvjSOAbPD6B3YATziXyTiqVDpMHDn05TG1VpnTb81VzX4C8sMM4MhNFohkNlG7rgq4yMKPVrQ6iuTcz8fJTYGMx5n1gIJ9buo2hLOh4RidVjZ6thU3U0KhdfqCqj/xuO7Ihu8Zo/ZdFtSEYl3tqbIpWGZoTKKpU1qMTaX1xYCSkKUKyOiWig1CCmDz2JYQozPoErGZlYbiSxopgiyEJMfPguuicLUR4oVu5lIvPyBMaNpC1OAzgL4UqoaM2FnEa13ljiy0A3GpRSkVa2Dz/avhXbN+Uhb8NmBLdvRkleHrbcuRXBO3zINrKlJKohUMepEx9cBGtwQPR6C0OwRVsDaESH+HBGma7pOCLWI2o8fxSTLLS1CG3bhLq4To6NBj+RdZU9QEPNwq9pOda/+EJQrF3ph7aeVfYo/o5/4CEjLe+VPtFMuRcBNjbkDr0NtQ8YFMefavZnjS62PvFxmXFl0bN8hWlv6jRGvhzEVM4a5E4Oom9EThUaZK7ACuPUEQ/ClWTRIgIUFpNhBSvcjTRSK9IK46Mzn+BM3xhGvzyHjjPn0Ds6ht6PPkHHp+HUjLREAyuNHGp5Fo/sP4WCxxvx0p4d+nXCt940PhV5xZSNglyUFtGJOm0irotpmVobj6GV09pQP9yIhDY1ZEJ9H/tnkmOoq5ldDFejqFBLMzp8ZH+z18TXqaX61grjyrwRHcmpw0nc5NEQ036RtSttTavjuLam9RftvC2yrmXeu5WC2NlQrPbWEGtQJHbaxxrKF3ex7E8XyYitPOxhecIOS/vTpgLNiClD/azjCPmwwj0LG9knmltXIWtynP5Kg/F+DFxdj/LyAMrL1mN6oD8SWQ2NYyJrFRy/qzb5qyjUtMxDJF+0tCkaciZkYDYmFkUk0jKOhfw8NPs2FBcXYWNBDnLW+VBCcb8vJ4ccfhFKim5L7UhLNDJ1+rqT+ag91jin4/gL19H9DyIfyVD+8MAQ/DS40OqbyloJgRCJjlbqleHmiGOgCEcfEZN4tIS1BXi1Dd10Wm1qqL016qMdMYUk38fumdIxOK1VJAWzWJnTsTB31FjllU67aLC1odjtrQmPmP4j3xEdncW2P/FRR9RezwRMzVnbn5gKVNZMBdqUYSnuDnThf2Jtvz3ygZn2Wbzx3gse7cfLio3w51xEf9+Uns4tQaB0I1aRkqTnbMSOQAlytRtT6Dt/Eav9GyPThU6Y+4MVRp6Eipb5Qwwzch7bciFcWyQ1G6iZAvjdKF/CWIacvFyszspAJo0Y8vJWITszA9mrc5E3Z+9WqkERyMkz8It1KCtDCFQgcL0Lr/yTxkzCGMhJNLUXGIvKVNb0VVQEfRCidmD9ayuxPyVW+zlA7xMkx9MkP1fX3se0yG3GyBNZw4rGX3YX/OQkmmYdhFgHob9LOsZ4cepYTvfsUMqI/Vmz03+zxyPa9OCv1alBeRzSvh9MQZxsiIjR3uKrwOg1LEmS7C8ufAhW+MjviQ/OdPT3Fn+b/j7qe2pbfijyF4LqZiCXmqRj/dZipPe3oWfYNBU4yzSGe9rQn1aMres9SIxL4UrMv3GiEZXV5mKxGTDYrm68I0SjGdGTCLkt/62Thpj2iZ4i1P7NUxyN7W1z8Tg+6zqH4ctG0gUr125G+RZ9fJE6UP2JjcWi/tQmpkYPPG5EXuQo6vaf0qbKrl8vUDZvzq17iWUbaO0P6qRuox0xKm5GsXmzKL1PZKOwi43kUflVlA2e5jxzNh/HgaxP2ckkpnqOwqqMueuZyyxqXNiQQ3tHbyyOYOkrEmV/EvG8pttdbwKOelcH+9L8XetdN8HmYmBm7CzaugYxfUshSjYVI/+W5UifuYKxC/3o6xvEaGYhSsu24BYPmjVnc7HAok/wP8xdKsQwBMYDVgIksbunXrfrctwuzGJC/Au7c73o+/oipowdQMuy1iB/QwlK1q3yPI0X5acd/BWLFsN4xU6YJFb3rbqZvB/reQyzBHDrpxO6psUwDGEWIytUgWKxYhjXsGgxjBkhNk6CMx+EQFmJFAsXw7iCRYthVNyIlRQYL8JmJ1YMw3iCRYthJGYRmk+0FY+wMQwTExYthjHjJiJiUWKYBYFFi2FUpBh5ESWrPPKaGwFkGMY1LFoMI/EqMGp+IVJSqNwIHcMwcbFk9mkxS5x4Ix835ey6EEdZDOMJN/u0loRoMUyUsHgREy/l4v0dDMO4hqcHmZuf+YzLvIiPyCsPhmGSAosWc3MjBUsVk3hFbD7ixzBMQmDRYphYcOTEMCkDr2kxix81mnKD1/ySeMsxDJMwONJibh68jr94vMYwiw4WLWbpEW+kJMpxlMUwCwjwfx1eum81wugpAAAAAElFTkSuQmCC;" vertex="1" parent="1">
          <mxGeometry x="-258" y="3731" width="429" height="44" as="geometry" />
        </mxCell>
        <mxCell id="Tvq0A719ylWsHTN5NcDF-10" value="* 条件：" style="text;html=1;align=center;verticalAlign=middle;resizable=0;points=[];autosize=1;strokeColor=none;fillColor=none;" vertex="1" parent="1">
          <mxGeometry x="-414" y="3799" width="62" height="26" as="geometry" />
        </mxCell>
        <mxCell id="Tvq0A719ylWsHTN5NcDF-11" value="下拉框" style="rounded=0;whiteSpace=wrap;html=1;" vertex="1" parent="1">
          <mxGeometry x="-362" y="3801.5" width="74" height="21" as="geometry" />
        </mxCell>
        <mxCell id="Tvq0A719ylWsHTN5NcDF-13" value="条件下拉框，等于或者不等于" style="rounded=0;whiteSpace=wrap;html=1;" vertex="1" parent="1">
          <mxGeometry x="-270" y="3797" width="126" height="35" as="geometry" />
        </mxCell>
        <mxCell id="Tvq0A719ylWsHTN5NcDF-14" value="值" style="rounded=0;whiteSpace=wrap;html=1;" vertex="1" parent="1">
          <mxGeometry x="-126" y="3804" width="74" height="21" as="geometry" />
        </mxCell>
        <mxCell id="Tvq0A719ylWsHTN5NcDF-16" value="&lt;font style=&quot;font-size: 18px;&quot;&gt;+&lt;/font&gt;" style="text;html=1;align=center;verticalAlign=middle;resizable=0;points=[];autosize=1;strokeColor=none;fillColor=none;" vertex="1" parent="1">
          <mxGeometry x="-34" y="3795" width="29" height="34" as="geometry" />
        </mxCell>
        <mxCell id="Tvq0A719ylWsHTN5NcDF-18" value="&lt;font style=&quot;font-size: 18px;&quot;&gt;-&lt;/font&gt;" style="text;html=1;align=center;verticalAlign=middle;resizable=0;points=[];autosize=1;strokeColor=none;fillColor=none;" vertex="1" parent="1">
          <mxGeometry x="1" y="3795" width="24" height="34" as="geometry" />
        </mxCell>
        <mxCell id="Tvq0A719ylWsHTN5NcDF-19" value="1." style="rounded=0;whiteSpace=wrap;html=1;align=left;" vertex="1" parent="1">
          <mxGeometry x="-361" y="3938" width="452" height="28" as="geometry" />
        </mxCell>
        <mxCell id="Tvq0A719ylWsHTN5NcDF-20" value="查询结果:" style="text;html=1;align=center;verticalAlign=middle;resizable=0;points=[];autosize=1;strokeColor=none;fillColor=none;" vertex="1" parent="1">
          <mxGeometry x="-442" y="3940" width="69" height="26" as="geometry" />
        </mxCell>
        <mxCell id="Tvq0A719ylWsHTN5NcDF-21" value="2." style="rounded=0;whiteSpace=wrap;html=1;align=left;" vertex="1" parent="1">
          <mxGeometry x="-361" y="3976" width="452" height="28" as="geometry" />
        </mxCell>
        <mxCell id="Tvq0A719ylWsHTN5NcDF-22" value="&lt;font style=&quot;font-size: 24px;&quot;&gt;.&lt;/font&gt;&lt;div&gt;&lt;font style=&quot;font-size: 24px;&quot;&gt;.&lt;/font&gt;&lt;/div&gt;&lt;div&gt;&lt;font style=&quot;font-size: 24px;&quot;&gt;.&lt;/font&gt;&lt;/div&gt;" style="text;html=1;align=center;verticalAlign=middle;resizable=0;points=[];autosize=1;strokeColor=none;fillColor=none;" vertex="1" parent="1">
          <mxGeometry x="-197.5" y="4000" width="25" height="98" as="geometry" />
        </mxCell>
        <mxCell id="Tvq0A719ylWsHTN5NcDF-23" value="10." style="rounded=0;whiteSpace=wrap;html=1;align=left;" vertex="1" parent="1">
          <mxGeometry x="-365" y="4098" width="452" height="28" as="geometry" />
        </mxCell>
        <mxCell id="Tvq0A719ylWsHTN5NcDF-24" value="展示更多" style="rounded=0;whiteSpace=wrap;html=1;fillColor=#dae8fc;strokeColor=#6c8ebf;" vertex="1" parent="1">
          <mxGeometry x="-220" y="4152" width="74" height="21" as="geometry" />
        </mxCell>
        <mxCell id="Tvq0A719ylWsHTN5NcDF-25" value="查询" style="rounded=0;whiteSpace=wrap;html=1;fillColor=#dae8fc;strokeColor=#6c8ebf;" vertex="1" parent="1">
          <mxGeometry x="-233" y="3872" width="74" height="21" as="geometry" />
        </mxCell>
      </root>
    </mxGraphModel>
  </diagram>
</mxfile>
